<?xml version="1.0" encoding="UTF-8"?>
<svg id="Layer_4" data-name="Layer 4" xmlns="http://www.w3.org/2000/svg" viewBox="0 0 859.88 892.16">
  <defs>
    <style>
      .cls-1 {
        fill: none;
      }

      .cls-1, .cls-2, .cls-3, .cls-4, .cls-5 {
        stroke-width: 0px;
      }

      .cls-2 {
        fill: #231b53;
      }

      .cls-3 {
        fill: #231f20;
      }

      .cls-4 {
        fill: #bfe2ef;
      }

      .cls-5 {
        fill: #bd1550;
      }
    </style>
  </defs>
  <polygon class="cls-4" points="398.8 166.57 398.86 166.59 398.83 166.54 398.8 166.57"/>
  <polygon class="cls-3" points="529.94 258.78 529.93 258.78 529.93 258.78 529.94 258.78"/>
  <polygon class="cls-1" points="398.8 166.57 398.86 166.59 398.83 166.54 398.8 166.57"/>
  <polygon class="cls-1" points="529.94 258.78 529.93 258.78 529.93 258.78 529.94 258.78"/>
  <g>
    <path class="cls-2" d="m429.94,0C201.62,0,14.79,190.62.06,431.67c-1.02,16.64,12.13,30.72,28.8,30.72h802.18c16.67,0,29.81-14.08,28.8-30.72C845.09,190.62,658.26,0,429.94,0Zm-116.18,342.92c-18.22,0-31.98-16.71-28.29-34.55,14.7-71.1,73.8-124.27,144.47-124.27s129.77,53.17,144.47,124.27c3.69,17.85-10.07,34.55-28.29,34.55h-232.36Z"/>
    <path class="cls-5" d="m688.69,570.83c-15.06,0-29.19,7.56-37.33,20.23-45.57,70.96-127.67,118.32-221.42,118.32s-175.85-47.36-221.42-118.32c-8.14-12.67-22.26-20.23-37.33-20.23h-101.49c-31.68,0-53.38,32.2-41.22,61.45,63.25,152.2,219.11,259.88,401.45,259.88s338.2-107.68,401.45-259.88c12.16-29.26-9.54-61.45-41.22-61.45h-101.49Z"/>
  </g>
</svg>