<svg width="158" height="48" viewBox="0 0 158 48" fill="none" xmlns="http://www.w3.org/2000/svg">
<g clip-path="url(#clip0_330_2245)">
<path d="M13.3958 18.9482C13.2967 18.5343 13.3202 18.0966 13.3749 17.8698C13.5131 17.216 13.9536 16.4856 15.2335 16.4856C16.4221 16.4856 17.1207 17.2318 17.1207 18.3497V19.6206H22.1854V18.1783C22.1828 13.7119 18.2024 13 15.3325 13C11.7249 13 8.77939 14.2102 8.23981 17.564C8.09123 18.4842 8.06777 19.2936 8.28152 20.3325C9.15996 24.53 16.3752 25.7454 17.4257 28.4005C17.6212 28.8936 17.5638 29.529 17.4648 29.9166C17.2979 30.6074 16.8392 31.3035 15.4811 31.3035C14.2117 31.3035 13.4531 30.5573 13.4531 29.4341L13.4453 27.4593H8V29.028C8 33.6184 11.5633 35 15.3794 35C19.1956 35 22.0603 33.7344 22.5503 30.2989C22.7954 28.5271 22.6103 27.3749 22.5295 26.9372C21.6719 22.629 13.9744 21.3502 13.3958 18.9482ZM79.4145 18.9983C79.3232 18.5923 79.3493 18.1625 79.3962 17.9358C79.5422 17.2792 79.9775 16.5621 81.2365 16.5621C82.4095 16.5621 83.095 17.3003 83.095 18.4104V19.6654H88.0998V18.2337C88.0998 13.8094 84.1794 13.1134 81.3382 13.1134C77.7618 13.1134 74.8424 14.3051 74.308 17.6352C74.1673 18.5422 74.1308 19.3464 74.3576 20.372C75.2282 24.5221 82.3704 25.727 83.4078 28.3531C83.5903 28.8514 83.5382 29.4842 83.4443 29.8586C83.2879 30.5415 82.8344 31.2296 81.4867 31.2296C80.2225 31.2296 79.464 30.494 79.464 29.3866V27.4171H74.076V28.9832C74.076 33.5209 77.5898 34.8919 81.3773 34.8919C85.1647 34.8919 87.9982 33.6395 88.4778 30.2409C88.7072 28.4849 88.5351 27.3432 88.4413 26.9108C87.602 22.6527 79.9879 21.3739 79.4118 18.9957L79.4145 18.9983ZM125.51 30.1855L120.73 13.6539H113.197V33.9744H118.181L117.891 16.9128L123.026 33.9744H130.252V13.6539H125.237L125.513 30.1855H125.51ZM29.7343 13.6539L25.9729 34.1879H31.4573L34.2907 15.1805L37.0564 34.1879H42.5017L38.7559 13.6539H29.7317H29.7343ZM60.3963 13.6539L57.834 29.7057L55.2742 13.6539H46.9929L46.555 34.1879H51.6275L51.7657 15.1805L55.256 34.1879H60.4041L63.8971 15.1805L64.0352 34.1879H69.1208L68.6672 13.6539H60.3963ZM107.569 13.6539H102.434V28.8435C102.442 29.1071 102.434 29.4051 102.389 29.6239C102.283 30.1328 101.855 31.1163 100.44 31.1163C99.0243 31.1163 98.602 30.1354 98.503 29.6239C98.4508 29.4051 98.4456 29.1071 98.4508 28.8435V13.6539H93.3183V28.3715C93.3131 28.7512 93.3418 29.5264 93.3627 29.7294C93.7172 33.5657 96.7044 34.8102 100.437 34.8102C104.17 34.8102 107.162 33.5657 107.525 29.7294C107.553 29.5264 107.59 28.7512 107.569 28.3715V13.6539ZM142.819 22.6632V25.6584H144.899V28.6299C144.904 28.8962 144.891 29.181 144.847 29.4104C144.763 29.964 144.245 30.908 142.767 30.908C141.289 30.908 140.788 29.964 140.699 29.4104C140.663 29.181 140.647 28.8936 140.647 28.6299V19.2435C140.647 18.9113 140.671 18.5475 140.739 18.2733C140.84 17.7723 141.278 16.7862 142.756 16.7862C144.31 16.7862 144.695 17.825 144.784 18.2733C144.841 18.5686 144.847 19.0642 144.847 19.0642V20.2033H149.958V19.5309C149.958 19.5309 149.982 18.8269 149.919 18.1731C149.536 14.3209 146.398 13.1028 142.8 13.1028C139.203 13.1028 136.122 14.3315 135.674 18.1731C135.632 18.5237 135.572 19.1565 135.572 19.5309V28.1632C135.572 28.5403 135.585 28.8303 135.653 29.5185C135.987 33.2651 139.195 34.5913 142.785 34.5913C146.374 34.5913 149.583 33.2625 149.924 29.5185C149.984 28.8303 149.992 28.5403 150 28.1632V22.6606H142.819V22.6632Z" fill="white"/>
</g>
<defs>
<clipPath id="clip0_330_2245">
<rect width="142" height="22" fill="white" transform="translate(8 13)"/>
</clipPath>
</defs>
</svg>
