<svg width="158" height="48" viewBox="0 0 158 48" fill="none" xmlns="http://www.w3.org/2000/svg">
<g clip-path="url(#clip0_330_2246)">
<path fill-rule="evenodd" clip-rule="evenodd" d="M138.569 13.3435H144.696C144.862 13.3435 145 13.4783 145 13.6453V30.5377C145 30.7047 144.862 30.8395 144.696 30.8395H138.569C138.402 30.8395 138.265 30.7047 138.265 30.5377V13.6453C138.265 13.4783 138.402 13.3435 138.569 13.3435Z" fill="white"/>
<path fill-rule="evenodd" clip-rule="evenodd" d="M128.331 13.3435H134.458C134.625 13.3435 134.763 13.4783 134.763 13.6453V30.5377C134.763 30.7047 134.625 30.8395 134.458 30.8395H128.331C128.165 30.8395 128.027 30.7047 128.027 30.5377V13.6453C128.027 13.4783 128.165 13.3435 128.331 13.3435Z" fill="white"/>
<path fill-rule="evenodd" clip-rule="evenodd" d="M110.652 18.1493C114.093 18.0049 117.556 18.0145 120.972 18.3805C123.075 18.6726 124.657 19.6229 124.97 21.8508L125.054 25.0258C125.057 25.4302 124.887 25.61 124.57 25.6389L112.364 25.5587C112.162 25.5715 112.044 25.6935 112.018 25.8636C111.81 27.4463 112.294 28.4254 113.785 28.5185L116.654 28.4896C117.124 28.4672 118.037 27.7866 118.117 27.1188C118.139 26.7529 118.302 26.5892 118.664 26.5731H124.154C124.689 26.5635 124.916 26.7657 124.887 27.228C124.717 29.1574 123.626 30.4832 121.187 30.923C118.363 31.0418 114.419 30.9872 110.978 30.9936C107.345 30.9166 105.943 30.0466 105.328 28.2168C104.813 26.0049 104.825 23.5651 105.248 21.4784C105.741 19.549 107.105 18.3259 110.652 18.1493ZM113.926 20.801C114.819 20.7079 115.713 20.7272 116.606 20.8363C117.473 21.0001 118.863 22.4254 117.841 22.9519C116.068 23.0065 114.31 23.0033 112.559 22.9712C111.804 22.297 112.534 21.045 113.93 20.8042L113.926 20.801Z" fill="white"/>
<path fill-rule="evenodd" clip-rule="evenodd" d="M83.4479 13.3435H89.575C89.7414 13.3435 89.8791 13.4783 89.8791 13.6453V18.8138C90.0071 18.9358 90.212 18.9872 90.4649 18.9519C91.0955 18.7689 91.7069 18.4864 92.328 18.4157C97.9748 17.9278 101.89 18.5763 102.264 21.5425L102.194 25.7641V30.5377C102.194 30.7015 102.056 30.8395 101.89 30.8395H96.0061C95.8396 30.8395 95.702 30.7047 95.702 30.5377V25.3788V22.9679C95.4843 21.244 90.8298 21.3435 89.8759 22.756V30.5377C89.8759 30.7047 89.7382 30.8395 89.5718 30.8395H83.4447C83.2783 30.8395 83.1406 30.7047 83.1406 30.5377V13.6453C83.1406 13.4783 83.2783 13.3435 83.4447 13.3435H83.4479Z" fill="white"/>
<path fill-rule="evenodd" clip-rule="evenodd" d="M62.3427 30.6986C57.8675 30.7082 57.0224 28.3743 57 25.3856C57 25.2186 57.1601 25.0838 57.3553 25.0838H64.5419C64.7372 25.0838 64.9037 25.2218 64.8973 25.3856C64.8621 26.4738 65.0669 27.4369 66.3794 27.7034L70.7874 27.7291C72.0359 27.5846 72.5961 26.5573 72.4552 25.0132C72.3656 24.1817 71.975 23.5686 70.6914 23.3535L62.5572 23.1608C59.5001 23.01 57.8387 22.0308 57.5762 20.1271L57.589 16.7628C57.7395 14.6408 59.1704 13.2411 62.951 13.1255L72.8138 13.0228C76.8216 12.8559 78.8928 13.6552 79.645 15.1191C79.8787 16.0533 79.8659 17.01 79.9075 18.0308C79.8691 18.3936 79.6386 18.5637 79.2161 18.5381L72.7625 18.5284C72.4488 18.5124 72.2984 18.3519 72.3048 18.0501C72.5673 16.0469 71.2772 15.6552 68.6618 15.713C66.0273 15.7226 64.8781 16.0726 64.7052 16.9297C64.4491 18.7724 64.9741 19.8703 66.6387 19.8735L72.9002 19.9859C78.1245 20.0726 79.9844 21.5718 80.0772 24.0212C80.6054 28.3743 79.2545 30.0469 76.9881 30.5413C72.2055 30.8944 67.3622 31.0742 62.3427 30.6986Z" fill="white"/>
</g>
<g clip-path="url(#clip1_330_2246)">
<path fill-rule="evenodd" clip-rule="evenodd" d="M14.6566 10.0519C21.9651 2.30836 35.5134 1.45462 44.0041 10.6676C47.7675 15.3282 49.6521 20.8668 48.7946 27.6881L42.3522 32.4542L41.5392 39.8984L31.3492 39.9654C29.8956 41.3579 28.2437 41.3194 26.9682 40.001L16.6432 39.974L15.7985 32.4799L9.30018 27.8834C8.12375 20.4649 10.5111 14.8051 14.6566 10.0519ZM45.3701 26.1517L39.1231 30.7012L38.5213 36.5448L30.8968 36.5989C29.7232 38.0969 28.3902 37.9829 27.3603 36.6274L19.6539 36.606L19.0003 30.9435L12.6298 26.1232C12.1587 24.3715 12.344 22.6313 13.0377 20.7571L23.2105 31.0318C23.5337 31.2157 23.6845 31.029 23.5279 30.7952L13.5951 18.7132C13.6195 17.2309 14.5589 15.7971 15.9135 14.3861L24.8968 29.6336C25.2042 30.0612 25.5059 29.9529 25.2732 29.4341L17.2048 12.7171C18.2922 11.0538 19.72 10.1801 21.3029 9.66275L26.8245 28.8654C27.0026 29.2787 27.333 29.2289 27.2267 28.7329L23.1947 8.74488C23.9215 8.19757 24.8006 7.80563 25.9038 7.63887C26.4467 7.57331 27.0946 7.58043 27.9507 7.61036L28.8757 28.8112C28.8484 29.4797 29.219 29.3414 29.232 28.8341L29.966 7.69873C30.5966 7.6631 31.2271 7.65312 31.8577 7.71441C32.9666 7.81275 34.0526 8.13201 34.7306 8.71922L30.9327 28.7357C30.9384 28.9837 31.1568 29.0165 31.2717 28.7842L36.7372 9.60859C38.9637 10.622 40.2895 11.7208 40.7291 12.6701L32.8704 29.4042C32.6837 29.7576 33.0112 29.9942 33.2108 29.7234L42.0477 14.2821C43.2643 15.4722 44.2397 16.7777 44.5442 18.4054L34.8857 30.4859C34.426 31.0318 34.6745 31.19 35.0897 30.6883L44.9148 20.8169C45.5741 22.2536 45.87 23.9354 45.3701 26.1545V26.1517Z" fill="white"/>
</g>
<defs>
<clipPath id="clip0_330_2246">
<rect width="88" height="18" fill="white" transform="translate(57 13)"/>
</clipPath>
<clipPath id="clip1_330_2246">
<rect width="40" height="37" fill="white" transform="translate(9 4)"/>
</clipPath>
</defs>
</svg>
