<svg width="158" height="48" viewBox="0 0 158 48" fill="none" xmlns="http://www.w3.org/2000/svg">
<g clip-path="url(#clip0_330_2244)">
<path d="M132.602 39.4894H129.928V25.2266H133.97C137.155 25.2266 139.376 26.8621 139.376 29.6264C139.376 31.5422 138.294 32.8974 136.586 33.5155L141.026 39.4357H137.953L133.858 33.9647H132.606V39.4894H132.602ZM132.602 31.88H134.024C135.675 31.88 136.756 31.0891 136.756 29.6801C136.756 28.2711 135.675 27.4265 134.024 27.4265H132.602V31.88Z" fill="white"/>
<path d="M117.807 25.2266H126.685V27.4265H120.423V31.093H126.169V33.2929H120.423V37.2972H126.739V39.4971H117.861V25.2266H117.803H117.807Z" fill="white"/>
<path d="M101.129 32.3868C101.129 36.4449 97.8856 39.7159 93.7858 39.7159C89.686 39.7159 86.4426 36.4449 86.4426 32.3868C86.4426 28.3287 89.6899 25.0576 93.7897 25.0576C97.8856 25 101.129 28.3287 101.129 32.3868ZM89.1241 32.3868C89.1241 35.2048 91.2283 37.2934 93.7897 37.2934C96.3511 37.2934 98.4552 35.2086 98.4552 32.3868C98.4552 29.5649 96.3511 27.4802 93.7897 27.4802C91.2283 27.4226 89.1241 29.5649 89.1241 32.3868Z" fill="white"/>
<path d="M46.4408 25.2266C50.5367 25.2266 53.8382 28.2711 53.8382 32.333C53.8382 36.395 50.5367 39.4395 46.4408 39.4395H42V25.2266H46.4408ZM44.6738 27.4265V37.2934H46.2664C49.1688 37.2934 51.1606 35.0935 51.1606 32.3868C51.1606 29.6801 49.1688 27.4802 46.2664 27.4802H44.6738V27.4226V27.4265Z" fill="white"/>
<path d="M59.1857 25.2266V39.4357H56.512V25.2266H59.1857Z" fill="white"/>
<path d="M66.3585 37.4622C67.8388 37.4622 68.8618 36.8403 68.8618 35.6578C68.8618 34.7556 68.234 34.3064 67.3234 33.9109L64.9325 32.7822C63.3941 32.0489 62.0882 31.1467 62.0882 29.1157C62.0882 26.6355 64.1381 25 66.8119 25C68.4626 25 69.8848 25.6757 70.683 26.409V29.1733C69.6019 28.1021 68.1216 27.2575 66.6995 27.2575C65.506 27.2575 64.5954 27.8219 64.5954 28.893C64.5954 29.6839 65.165 30.0755 65.9594 30.4709L68.1798 31.4845C70.2839 32.4443 71.365 33.4003 71.365 35.3737C71.365 38.0228 69.1447 39.6583 66.3004 39.6583C64.4791 39.6583 62.8865 38.9826 61.9177 38.2493V35.5426C63.1694 36.6138 64.7077 37.4584 66.3585 37.4584V37.4622Z" fill="white"/>
<path d="M84.4006 35.6578V38.7024C83.3194 39.3243 82.0678 39.7159 80.6999 39.7159C76.604 39.7159 73.3025 36.4449 73.3025 32.3868C73.3025 28.3287 76.6001 25.0576 80.6999 25.0576C82.0639 25.0576 83.3737 25.3955 84.4006 26.0712V29.1157C83.5481 28.1559 82.2383 27.5915 80.758 27.5915C78.0262 27.5915 75.9763 29.6763 75.9763 32.4405C75.9763 35.2048 78.0804 37.2895 80.758 37.2895C82.2383 37.1782 83.5481 36.6138 84.4006 35.654V35.6578Z" fill="white"/>
<path d="M101.358 25.2266H104.318L108.759 34.7556L113.196 25.2266H115.986L108.643 40L101.358 25.2266Z" fill="white"/>
<path d="M145.921 39.4894V33.0625L140.569 25.2266H143.584L147.285 30.6399L150.985 25.2266H154L148.649 33.0625V39.4357H145.917V39.4933L145.921 39.4894Z" fill="white"/>
</g>
<g clip-path="url(#clip1_330_2244)">
<path d="M34.7929 16.6004V15.0938L32.753 13.9888V12.4152L31.7497 11.8795C28.8069 10.4732 25.5297 9.53571 21.7508 9.03348L21.5167 9L21.2826 9.03348C17.5038 9.53571 14.26 10.4732 11.2837 11.8795L10.247 12.3817V13.9554L8.20712 15.0603V16.567L6 17.7723L6.16721 19.0446C6.73571 23.2634 8.274 27.1138 10.7487 30.4286C13.2233 33.7768 16.5674 36.5223 20.6807 38.5982L21.4833 39L22.2859 38.5982C26.4326 36.5223 29.7767 33.7768 32.2513 30.3951C34.6926 27.0804 36.2309 23.2299 36.8328 19.0112L37 17.7388L34.7929 16.6004ZM35.027 18.7768C34.8263 20.183 34.1575 24.8036 30.7799 29.3237C27.3689 33.9777 22.8544 36.2545 21.5167 36.9241C20.1456 36.221 15.6645 33.9777 12.2201 29.3237C8.8425 24.8036 8.17368 20.183 7.97303 18.7768L10.0129 17.6719V16.1317L12.0529 15.0268V13.5201C14.8619 12.1808 17.9385 11.3103 21.5167 10.8415C25.0615 11.3103 28.1715 12.1808 30.9806 13.5201V15.0268L33.0205 16.1317V17.6719L35.027 18.7768Z" fill="white"/>
<path d="M18.4736 14.5246L18.5739 26.9129L18.4736 26.9799C17.1694 23.6652 16.3668 19.5134 16.1327 15.3951C15.4973 15.6964 14.7951 16.0313 14.0928 16.5C14.3603 20.25 15.0292 23.5647 16.1662 26.6786L15.4973 27.0469C13.7584 24.6362 12.6214 21.6562 11.8523 18.1741C11.3172 18.6429 10.7821 19.1786 10.2805 19.7813C11.2838 24 12.8889 27.1808 15.2298 29.7589L17.0356 28.6875C17.9051 30.529 19.1424 32.3371 20.5135 33.7768V14.1562C19.8447 14.2232 19.1759 14.3237 18.4736 14.5246Z" fill="white"/>
<path d="M30.0443 20.8862C30.78 20.0826 30.9472 19.4799 30.9472 18.7768C30.9472 17.7723 30.1112 16.8683 28.9073 16.0982C28.1716 15.6295 27.0346 15.0603 25.396 14.5915C24.4596 14.3237 23.4564 14.1897 22.4531 14.1562V33.7768C26.5664 31.6674 31.4488 25.8415 31.4823 22.8951C31.5157 21.9576 31.0141 21.3549 30.0443 20.8862ZM24.493 16.5C25.4963 16.5 28.7735 17.5379 28.7735 18.8438C28.7735 19.3125 28.3722 19.9821 27.068 20.6853L24.493 22.058V16.5ZM27.0346 27.3482C26.4661 28.0179 25.4963 29.0223 24.493 29.8259V24.2344C24.493 24.2344 28.205 22.125 28.3388 22.058C29.4423 22.3259 29.4089 23.1629 29.4089 23.2299C29.4089 24.2679 28.3388 25.8415 27.0346 27.3482Z" fill="white"/>
</g>
<g clip-path="url(#clip2_330_2244)">
<path d="M43.8604 20.9999L39 9.44147H41.2494L43.9952 16.3681L47.0108 9.13208L50.0263 16.3681L52.7721 9.44147H54.9327L50.1182 20.9999L46.9219 13.5446L43.8604 20.9999Z" fill="white"/>
<path d="M65.3737 20.5584H63.1672L61.9965 18.1765H57.1821L56.0114 20.5584H53.8049L59.6123 9L65.3737 20.5584ZM57.9023 16.5875H61.2334L59.5694 13.1452L57.9053 16.5875H57.9023Z" fill="white"/>
<path d="M68.9317 20.5585H66.8171V9.44165H70.0135C72.5325 9.44165 74.2885 10.7212 74.2885 12.884C74.2885 14.3828 73.4335 15.4432 72.0821 15.9268L75.594 20.5585H73.1638L69.9246 16.2782H68.9348V20.5585H68.9317ZM68.9317 14.6021H70.0564C71.3619 14.6021 72.2169 13.9833 72.2169 12.8809C72.2169 11.7786 71.3619 11.1177 70.0564 11.1177H68.9317V14.6021Z" fill="white"/>
<path d="M101.787 20.5585H99.6721V9.44165H102.868C105.388 9.44165 107.144 10.7212 107.144 12.884C107.144 14.3828 106.289 15.4432 104.937 15.9268L108.449 20.5585H106.065L102.826 16.2782H101.836V20.5585H101.79H101.787ZM101.787 14.6021H102.911C104.217 14.6021 105.072 13.9833 105.072 12.8809C105.072 11.7786 104.217 11.1177 102.911 11.1177H101.787V14.6021Z" fill="white"/>
<path d="M85.4036 9.44155H87.4752V21L79.4645 13.4576V20.5615H77.3928V9L85.4036 16.5424V9.44155Z" fill="white"/>
<path d="M90.2179 9.44165H97.2388V11.1628H92.2865V14.0314H96.8312V15.7525H92.2865V18.8855H97.2817V20.6066H90.2608V9.44165H90.2148H90.2179Z" fill="white"/>
<path d="M114.03 9.44165H117.315C119.834 9.44165 121.186 10.5891 121.186 12.3973C121.186 13.5448 120.465 14.3378 119.61 14.7343C120.916 15.0857 121.906 16.0139 121.906 17.4256C121.906 19.4111 120.331 20.6006 117.9 20.6006H114.076V9.44165H114.03ZM117.18 14.1605C118.351 14.1605 119.117 13.6319 119.117 12.6617C119.117 11.6915 118.351 11.1628 117.18 11.1628H116.101V14.1636H117.18V14.1605ZM117.72 18.8374C118.936 18.8374 119.745 18.2186 119.745 17.2484C119.745 16.2782 118.936 15.6594 117.72 15.6594H116.098V18.8344H117.72V18.8374Z" fill="white"/>
<path d="M126.181 20.5585H124.066V9.44165H127.263C129.782 9.44165 131.538 10.7212 131.538 12.884C131.538 14.3828 130.683 15.4432 129.331 15.9268L132.843 20.5585H130.413L127.174 16.2782H126.184V20.5585H126.181ZM126.181 14.6021H127.305C128.611 14.6021 129.466 13.9833 129.466 12.8809C129.466 11.7786 128.611 11.1177 127.305 11.1177H126.181V14.6021Z" fill="white"/>
<path d="M145.129 14.9986C145.129 18.1735 142.564 20.7327 139.321 20.7327C136.079 20.7327 133.514 18.1735 133.514 14.9986C133.514 11.8236 136.082 9.2644 139.321 9.2644C142.561 9.2644 145.129 11.8236 145.129 14.9986ZM135.632 14.9986C135.632 17.2033 137.296 18.8374 139.321 18.8374C141.347 18.8374 143.011 17.2063 143.011 14.9986C143.011 12.7908 141.347 11.1598 139.321 11.1598C137.296 11.1598 135.632 12.7908 135.632 14.9986Z" fill="white"/>
<path d="M150.081 18.9694C151.252 18.9694 152.061 18.4828 152.061 17.5577C152.061 16.8518 151.564 16.5003 150.844 16.191L148.953 15.3078C147.737 14.7341 146.704 14.0282 146.704 12.4393C146.704 10.4988 148.325 9.21924 150.44 9.21924C151.745 9.21924 152.87 9.7479 153.501 10.3216V12.4393C152.646 11.6012 151.475 10.9404 150.351 10.9404C149.407 10.9404 148.687 11.3819 148.687 12.22C148.687 12.8388 149.137 13.1451 149.765 13.4545L151.521 14.2475C153.185 14.9985 154.04 15.7464 154.04 17.2903C154.04 19.3629 152.284 20.6425 150.035 20.6425C148.595 20.6425 147.335 20.1139 146.569 19.5401V17.4225C147.559 18.3056 148.776 18.9664 150.081 18.9664V18.9694Z" fill="white"/>
<path d="M158 19.366C158 20.117 157.415 20.6456 156.694 20.6456H156.649C155.928 20.6456 155.343 20.0719 155.343 19.366C155.343 18.6601 155.928 18.0864 156.649 18.0864H156.694C157.415 18.0864 158 18.6601 158 19.366Z" fill="white"/>
</g>
<defs>
<clipPath id="clip0_330_2244">
<rect width="112" height="15" fill="white" transform="translate(42 25)"/>
</clipPath>
<clipPath id="clip1_330_2244">
<rect width="31" height="30" fill="white" transform="translate(6 9)"/>
</clipPath>
<clipPath id="clip2_330_2244">
<rect width="119" height="12" fill="white" transform="translate(39 9)"/>
</clipPath>
</defs>
</svg>
