<svg width="158" height="48" viewBox="0 0 158 48" fill="none" xmlns="http://www.w3.org/2000/svg">
<path d="M65.2864 18.9495H66.2897L63.0922 30.1857H61.9871L61.9603 30.1316L58.956 20.3128L55.898 30.1803H54.8197L54.809 30.1262L51.5955 18.9441H52.5987L52.6094 18.9982L55.4045 28.7088L58.4088 18.9441H59.4871L59.5139 18.9982L62.5075 28.7359L65.2918 18.9441L65.2864 18.9495Z" fill="white"/>
<path d="M74.2188 22.1142V23.7047C73.8916 23.1908 73.4785 22.7851 72.9581 22.4713C72.3626 22.1142 71.6813 21.9465 70.9302 21.9465C69.7982 21.9465 68.8218 22.3685 68.001 23.1692C67.1963 23.986 66.7939 24.9815 66.7939 26.1662C66.7939 27.351 67.2124 28.3464 68.001 29.1633C68.8057 29.9639 69.7821 30.3751 70.9302 30.3751C71.6866 30.3751 72.3733 30.1911 72.9581 29.8503C73.4785 29.5474 73.8969 29.1254 74.2188 28.6277V30.2182H75.1684V22.1467H74.2188V22.1196V22.1142ZM74.2188 26.15C74.2188 27.0696 73.9077 27.8433 73.28 28.487C72.6577 29.12 71.8851 29.4446 70.9785 29.4446C70.0718 29.4446 69.2993 29.1146 68.6609 28.487C68.0386 27.8541 67.7113 27.0696 67.7113 26.15C67.7113 25.2303 68.0225 24.4567 68.6609 23.8129C69.2832 23.18 70.0665 22.8554 70.9785 22.8554C71.8905 22.8554 72.6577 23.1692 73.28 23.8129C73.9023 24.4567 74.2188 25.2303 74.2188 26.15Z" fill="white"/>
<path d="M92.0943 25.1924V30.1857H91.1448V25.1924C91.1448 24.4675 90.9516 23.9049 90.56 23.4829C90.1684 23.0609 89.6104 22.85 88.9077 22.85C88.1244 22.85 87.4753 23.115 86.9924 23.6398C86.4989 24.1645 86.2521 24.9273 86.2521 25.9282V30.1857H85.3186V18.9495H86.2521V23.4072C86.8368 22.4496 87.7489 21.9465 88.9828 21.9465C89.9323 21.9465 90.6995 22.2495 91.2574 22.8391C91.8154 23.418 92.089 24.2078 92.089 25.1924H92.0943Z" fill="white"/>
<path d="M82.7543 26.6639C83.0816 27.0047 83.264 27.4646 83.264 28.0434C83.264 28.7251 82.9904 29.2931 82.4593 29.7259C81.9389 30.1587 81.2361 30.3696 80.3777 30.3696C79.6213 30.3696 78.9614 30.2128 78.4249 29.8828C77.9046 29.5528 77.529 29.1092 77.3198 28.5682L77.293 28.5033L78.1138 28.0326L78.1406 28.1246C78.2694 28.5465 78.543 28.8711 78.9346 29.0983C79.3262 29.3364 79.8037 29.4662 80.3777 29.4662C80.9518 29.4662 81.4185 29.3364 81.7833 29.0875C82.1481 28.8387 82.3144 28.5087 82.3144 28.0488C82.3144 27.681 82.1589 27.3942 81.8584 27.1833C81.5473 26.9615 81.1556 26.7775 80.6996 26.6585L79.294 26.2798C78.8112 26.1608 78.3981 25.9228 78.0709 25.5982C77.7329 25.2682 77.5612 24.8246 77.5612 24.2728C77.5612 23.629 77.8241 23.061 78.3284 22.6174C78.8327 22.1846 79.4979 21.9465 80.308 21.9465C80.9464 21.9465 81.5043 22.0926 81.9872 22.3793C82.47 22.666 82.8187 23.0772 83.0387 23.5749L83.0655 23.6398L82.2715 24.0996L82.2447 24.0185C82.0998 23.6506 81.8423 23.3639 81.4882 23.1637C81.1342 22.969 80.7479 22.8608 80.3026 22.8608C79.7822 22.8608 79.3531 22.9906 79.0043 23.2395C78.6664 23.4883 78.4947 23.8183 78.4947 24.2403C78.4947 24.5974 78.6503 24.8733 78.9507 25.0788C79.2619 25.2898 79.6642 25.4575 80.1095 25.5765L81.5151 25.9444C82.0086 26.0905 82.4271 26.3231 82.749 26.6693L82.7543 26.6639Z" fill="white"/>
<path d="M105.764 19.0251V30.1153H103.253V23.6614L100.415 28.3679H100.131L97.293 23.6614V30.1153H94.7822V19.0251H97.293L100.27 23.9535L103.248 19.0251H105.759H105.764Z" fill="white"/>
<path d="M109.9 27.0966C110.174 27.8324 110.796 28.2002 111.783 28.2002C112.422 28.2002 112.926 28.0055 113.291 27.5943L115.179 28.6871C114.412 29.7799 113.264 30.3155 111.756 30.3155C110.442 30.3155 109.391 29.9206 108.597 29.1307C107.803 28.3409 107.411 27.3455 107.411 26.1337C107.411 24.9219 107.803 23.9373 108.58 23.1528C109.364 22.3522 110.362 21.9573 111.585 21.9573C112.727 21.9573 113.666 22.3522 114.433 23.1528C115.19 23.9535 115.565 24.9381 115.565 26.1337C115.565 26.4745 115.539 26.7883 115.474 27.0804H109.895V27.0912L109.9 27.0966ZM109.847 25.3222H113.216C112.98 24.4945 112.438 24.0725 111.553 24.0725C110.667 24.0725 110.083 24.4945 109.847 25.3222Z" fill="white"/>
<path d="M121.478 24.4675H119.863V27.2643C119.863 27.5781 119.991 27.7783 120.238 27.8702C120.485 27.9514 120.903 27.973 121.472 27.9514V30.1045C119.975 30.2614 118.951 30.1153 118.366 29.6717C117.781 29.2281 117.508 28.422 117.508 27.2643V24.4675H116.258V22.1953H117.508V20.686L119.863 19.9773V22.2007H121.478V24.4729V24.4675Z" fill="white"/>
<path d="M125.56 23.6019C125.705 23.0879 126 22.7092 126.445 22.4333C126.885 22.1682 127.384 22.0276 127.915 22.0276V24.7217C127.341 24.6297 126.81 24.7217 126.3 25.0084C125.807 25.2951 125.56 25.7982 125.56 26.5178V30.0937H123.205V22.1953H125.56V23.6019Z" fill="white"/>
<path d="M131.413 21.0756C131.14 21.3515 130.802 21.4976 130.41 21.4976C130.018 21.4976 129.696 21.3515 129.407 21.0756C129.133 20.7997 128.988 20.4589 128.988 20.064C128.988 19.6691 129.133 19.3391 129.407 19.0523C129.68 18.7764 130.018 18.6304 130.41 18.6304C130.802 18.6304 131.123 18.7764 131.413 19.0523C131.687 19.3282 131.832 19.6691 131.832 20.064C131.832 20.4589 131.687 20.7997 131.413 21.0756ZM129.24 30.1046V22.1955H131.596V30.1209H129.24V30.11V30.1046Z" fill="white"/>
<path d="M141 30.1045H138.323L136.853 28.0001L135.383 30.1045H132.706L135.517 26.085L132.787 22.1953H135.464L136.842 24.1645L138.221 22.1953H140.898L138.178 26.085L141 30.1045Z" fill="white"/>
<mask id="mask0_330_2247" style="mask-type:alpha" maskUnits="userSpaceOnUse" x="19" y="8" width="28" height="33">
<path fill-rule="evenodd" clip-rule="evenodd" d="M32.7751 22.2773L43.4795 16.0319L32.7628 9.79264L20.534 16.9273L20.5208 16.9197L20.5226 32.0928L24.7522 34.5605L24.7463 21.1371L26.27 22.0261L26.2628 35.4418L30.4924 37.9095L30.4917 24.5291L32.0023 25.4104L32.0041 40.5835L30.4935 39.7021L20.5237 33.8854L19 32.9964L19.0085 16.0241L31.2373 8.88935L32.7616 8L34.2984 8.89665L45.0038 15.1426L46.5275 16.0316L45.0032 16.9209L34.2873 23.1729L32.763 24.0623L31.2393 23.1733L22.1627 17.8777L23.6985 16.9817L32.7751 22.2773Z" fill="white"/>
<path fill-rule="evenodd" clip-rule="evenodd" d="M46.54 17.8174L46.5418 32.9905L45.0175 33.8799L45.0151 20.4851L40.7947 22.9474L40.7971 36.3421L39.2842 37.2248L39.2704 23.8368L35.0501 26.2991L35.0524 39.6938L33.5281 40.5832L33.5377 25.4035L35.0507 24.5207L39.271 22.0584L39.2824 22.0518L40.7954 21.1691L45.0157 18.7068L46.54 17.8174Z" fill="white"/>
</mask>
<g mask="url(#mask0_330_2247)">
<path d="M46.9405 7.65186H18.6731V40.9826H46.9405V7.65186Z" fill="white"/>
</g>
</svg>
